<svg viewBox="0 0 192 192" xmlns="http://www.w3.org/2000/svg">
  <rect width="192" height="192" rx="24" fill="#3B82F6"/>
  <rect x="32" y="32" width="128" height="128" rx="8" fill="white"/>
  
  <!-- Simplified calculator display -->
  <rect x="40" y="40" width="112" height="24" rx="4" fill="#f8fafc" stroke="#e2e8f0"/>
  <text x="96" y="56" fill="#374151" font-family="monospace" font-size="14" text-anchor="middle">123.45</text>
  
  <!-- Calculator buttons (simplified grid) -->
  <g fill="#f3f4f6" stroke="#e2e8f0">
    <rect x="40" y="72" width="24" height="20" rx="2"/>
    <rect x="72" y="72" width="24" height="20" rx="2"/>
    <rect x="104" y="72" width="24" height="20" rx="2"/>
    <rect x="136" y="72" width="24" height="20" rx="2" fill="#3B82F6"/>
    
    <rect x="40" y="100" width="24" height="20" rx="2"/>
    <rect x="72" y="100" width="24" height="20" rx="2"/>
    <rect x="104" y="100" width="24" height="20" rx="2"/>
    <rect x="136" y="100" width="24" height="20" rx="2" fill="#3B82F6"/>
    
    <rect x="40" y="128" width="56" height="20" rx="2"/>
    <rect x="104" y="128" width="24" height="20" rx="2"/>
    <rect x="136" y="128" width="24" height="20" rx="2" fill="#3B82F6"/>
  </g>
  
  <!-- Key symbols -->
  <g fill="#374151" font-family="Arial" font-size="12" text-anchor="middle" font-weight="bold">
    <text x="52" y="86">7</text>
    <text x="84" y="86">8</text>
    <text x="116" y="86">9</text>
    <text x="52" y="114">4</text>
    <text x="84" y="114">5</text>
    <text x="116" y="114">6</text>
    <text x="68" y="142">0</text>
    <text x="116" y="142">.</text>
  </g>
  
  <!-- Operation symbols -->
  <g fill="white" font-family="Arial" font-size="14" text-anchor="middle" font-weight="bold">
    <text x="148" y="86">÷</text>
    <text x="148" y="114">×</text>
    <text x="148" y="142">=</text>
  </g>
  
  <!-- Brand text -->
  <text x="96" y="20" fill="white" font-family="Arial" font-size="14" font-weight="bold" text-anchor="middle">Считай.RU</text>
</svg>